<?xml version="1.0" standalone="no"?>
<!DOCTYPE svg PUBLIC "-//W3C//DTD SVG 20010904//EN"
 "http://www.w3.org/TR/2001/REC-SVG-20010904/DTD/svg10.dtd">
<svg version="1.0" xmlns="http://www.w3.org/2000/svg"
 width="500.000000pt" height="500.000000pt" viewBox="0 0 500.000000 500.000000"
 preserveAspectRatio="xMidYMid meet">
<metadata>
Created by potrace 1.14, written by Peter Selinger 2001-2017
</metadata>
<g transform="translate(0.000000,500.000000) scale(0.100000,-0.100000)"
fill="#000000" stroke="none">
<path d="M1197 4744 c-1 -1 -36 -4 -77 -7 -301 -22 -554 -149 -728 -366 -20
-25 -40 -48 -43 -51 -13 -11 -78 -130 -71 -130 4 0 1 -4 -6 -8 -7 -5 -14 -17
-16 -28 -2 -10 -13 -43 -25 -71 -11 -29 -23 -63 -25 -75 -32 -152 -35 -183
-32 -293 2 -66 6 -127 9 -135 8 -20 18 -78 20 -112 1 -16 5 -28 9 -28 5 0 8
-8 8 -17 0 -23 44 -131 59 -146 6 -6 11 -16 11 -22 0 -17 139 -225 150 -225 5
0 11 -8 14 -17 8 -23 112 -131 195 -203 35 -30 70 -61 77 -68 7 -7 17 -13 21
-13 4 0 18 -9 31 -19 12 -11 27 -20 32 -20 6 0 10 -4 10 -9 0 -5 15 -14 33
-21 17 -8 40 -20 50 -28 9 -8 17 -11 17 -6 0 5 4 4 8 -2 4 -5 32 -20 62 -32
30 -12 69 -27 85 -33 17 -7 35 -13 40 -14 6 -2 30 -8 54 -14 48 -14 122 -25
164 -26 15 0 27 -2 27 -5 0 -3 64 -4 142 -3 193 4 1097 6 1230 3 58 -1 111 1
116 4 6 3 13 3 15 -1 6 -10 378 -9 469 1 44 5 72 3 80 -3 7 -6 41 -29 76 -52
34 -22 62 -45 62 -50 0 -5 6 -9 13 -9 18 -1 156 -135 211 -205 26 -33 51 -66
57 -72 5 -7 7 -13 4 -13 -4 0 2 -12 13 -27 32 -47 77 -171 87 -243 11 -71 7
-184 -8 -240 -2 -8 -7 -28 -12 -45 -4 -16 -14 -39 -21 -50 -8 -11 -14 -27 -14
-37 0 -10 -4 -18 -9 -18 -5 0 -11 -10 -14 -23 -10 -36 -103 -133 -161 -167
-81 -46 -140 -60 -238 -59 -71 1 -105 8 -195 39 -59 20 -125 46 -145 58 -21
12 -38 18 -38 14 0 -4 -4 -2 -8 3 -4 6 -34 24 -67 40 -33 15 -62 31 -65 34 -5
6 -20 15 -105 63 -27 16 -57 33 -65 38 -54 34 -255 120 -330 141 -25 7 -48 18
-52 24 -4 5 -8 7 -8 3 0 -3 -33 3 -72 14 -107 28 -219 34 -263 14 -51 -25 -91
-65 -114 -115 -29 -65 -25 -212 7 -301 3 -8 6 -23 7 -32 2 -10 4 -20 5 -23 3
-5 3 -5 15 -50 16 -61 77 -198 117 -263 149 -245 386 -455 673 -597 95 -48
276 -120 326 -130 9 -2 34 -8 55 -14 204 -59 502 -73 744 -35 59 9 182 42 240
65 30 11 61 21 68 22 6 0 12 4 12 9 0 4 7 8 16 8 30 0 179 88 279 164 49 37
194 183 215 215 8 13 23 34 33 46 9 13 17 28 17 34 0 6 4 11 8 11 6 0 50 76
57 100 1 3 9 22 18 42 10 21 17 42 17 48 0 5 4 10 10 10 5 0 9 3 8 8 -1 4 5
32 15 62 9 30 19 70 22 89 3 19 8 37 10 41 17 28 28 338 14 400 -4 19 -10 49
-13 65 -10 54 -14 69 -27 115 -16 55 -14 51 -23 75 -4 11 -13 34 -19 50 -6 17
-24 59 -40 95 -15 36 -28 67 -27 69 1 2 -2 7 -7 10 -4 3 -17 22 -28 43 -35 63
-117 178 -128 178 -6 0 -8 3 -4 6 5 5 -185 201 -228 234 -17 13 -64 50 -155
123 -8 7 -31 23 -50 37 -19 13 -37 27 -40 30 -3 3 -27 21 -55 40 -27 19 -51
38 -53 42 -2 4 -10 8 -18 8 -8 0 -14 3 -14 8 0 4 -21 20 -48 37 -26 16 -58 40
-72 52 -14 13 -28 23 -32 23 -3 0 -13 6 -20 13 -7 7 -31 26 -53 42 -22 17 -42
32 -45 35 -3 3 -30 24 -60 47 -30 23 -64 50 -75 60 -11 10 -38 31 -60 47 -22
16 -44 34 -50 40 -5 6 -26 23 -47 38 -20 15 -42 33 -50 40 -7 7 -38 33 -68 58
-30 25 -71 59 -90 76 -42 38 -210 184 -230 201 -8 7 -29 25 -46 40 -83 74
-172 152 -248 217 -26 22 -61 52 -76 66 -15 14 -46 41 -69 60 -24 19 -49 40
-56 47 -7 7 -61 53 -120 103 -59 50 -113 96 -120 103 -7 7 -34 30 -61 52 -26
22 -56 48 -66 58 -10 9 -21 17 -24 17 -3 0 -11 6 -18 13 -7 6 -32 28 -56 47
-24 19 -48 40 -54 45 -30 28 -209 156 -281 201 -96 59 -232 110 -350 129 -49
8 -165 22 -168 19z"/>
<path d="M4137 4683 c-3 -2 -45 -6 -93 -8 -49 -2 -116 -11 -149 -20 -79 -20
-74 -19 -119 -38 -21 -9 -40 -17 -43 -17 -2 0 -36 -21 -75 -46 -65 -41 -200
-164 -182 -164 4 0 0 -6 -9 -12 -28 -22 -106 -169 -129 -243 -29 -99 -33 -126
-32 -250 1 -103 26 -239 53 -293 5 -9 24 -48 42 -86 19 -37 40 -70 47 -73 6
-3 12 -11 12 -17 0 -18 90 -108 152 -153 99 -71 217 -123 313 -138 71 -11 185
-13 191 -4 2 5 11 6 19 3 26 -11 159 27 239 67 122 62 169 100 286 229 30 33
98 158 115 212 4 13 9 28 11 33 3 11 23 86 30 120 14 63 4 232 -18 310 -6 22
-12 42 -13 45 -12 51 -80 191 -107 219 -10 11 -18 24 -18 28 0 8 -84 91 -150
148 -47 41 -192 110 -260 125 -30 6 -67 15 -82 20 -15 4 -29 6 -31 3z"/>
<path d="M1119 2426 c-2 -3 -22 -6 -44 -8 -22 -2 -46 -7 -53 -12 -6 -4 -12 -5
-12 -1 0 3 -8 1 -18 -4 -11 -6 -30 -12 -43 -15 -13 -2 -37 -10 -54 -17 -16 -6
-37 -13 -45 -15 -34 -7 -232 -112 -238 -126 -2 -5 -8 -8 -13 -8 -18 0 -169
-144 -169 -161 0 -6 -4 -7 -10 -4 -5 3 -10 1 -10 -4 0 -10 -19 -36 -47 -66 -7
-8 -13 -18 -13 -23 0 -6 -4 -12 -9 -14 -12 -4 -95 -163 -111 -213 -7 -22 -15
-44 -19 -50 -6 -10 -11 -29 -15 -55 -1 -9 -5 -20 -8 -25 -7 -13 -30 -127 -43
-220 -4 -22 -8 -51 -11 -65 -2 -14 -7 -65 -10 -114 -2 -49 -7 -93 -10 -98 -3
-4 -2 -8 3 -8 4 0 9 -26 9 -58 2 -95 18 -194 41 -252 30 -74 68 -150 75 -150
4 0 8 -9 8 -20 0 -11 5 -20 10 -20 6 0 10 -7 10 -15 0 -8 7 -15 16 -15 8 0 13
-4 10 -8 -9 -15 135 -152 161 -152 6 0 13 -3 15 -7 10 -23 195 -98 273 -111
75 -13 237 -6 300 12 157 45 296 139 400 271 61 77 113 169 134 240 7 22 15
47 18 55 11 30 17 108 17 225 1 110 -6 159 -34 230 -4 11 -14 36 -21 55 -7 19
-15 37 -18 40 -3 3 -16 24 -29 48 -27 50 -40 67 -102 131 -96 100 -166 145
-285 186 -96 33 -135 39 -245 39 -103 0 -143 -5 -205 -27 -70 -26 -170 -75
-221 -110 -66 -45 -99 -56 -54 -17 19 16 39 30 43 30 5 0 5 5 2 10 -3 6 1 10
9 10 8 0 22 7 30 16 45 44 334 173 426 190 14 2 36 7 50 9 14 3 36 8 50 10 14
3 52 7 84 10 33 3 62 8 64 10 3 2 13 0 23 -5 10 -6 20 -7 23 -2 10 17 277 -9
411 -40 28 -7 53 -11 57 -10 4 1 23 -5 42 -13 20 -9 39 -15 43 -16 17 0 61
-12 121 -31 34 -11 68 -21 75 -22 7 -2 19 -5 27 -9 23 -8 193 -59 205 -61 6
-1 16 -5 23 -9 6 -5 12 -6 12 -3 0 3 18 -1 39 -9 22 -7 42 -11 45 -8 3 4 6 2
6 -3 0 -5 12 -11 26 -12 15 -1 32 -6 38 -11 6 -5 27 -12 46 -17 19 -4 37 -9
40 -9 8 -2 62 -24 85 -34 11 -5 38 -17 60 -26 94 -40 285 -139 285 -146 0 -5
9 -9 20 -9 11 0 20 -4 20 -9 0 -5 10 -13 23 -17 12 -4 24 -9 27 -13 12 -14
216 -117 270 -136 3 -1 12 -5 20 -8 85 -36 273 -42 340 -12 22 10 40 22 40 27
0 4 3 7 8 6 4 -2 18 5 32 15 13 9 21 17 16 17 -4 0 6 11 22 25 17 14 34 41 39
63 11 41 8 132 -4 141 -5 3 -9 13 -11 21 -3 18 -51 61 -90 81 -15 8 -29 16
-32 19 -7 8 -217 90 -238 93 -9 1 -21 5 -27 8 -5 3 -44 16 -85 28 -41 13 -84
27 -95 32 -11 5 -49 18 -85 29 -36 12 -74 24 -85 29 -11 4 -81 28 -155 53 -74
25 -187 65 -250 88 -63 22 -216 75 -340 116 -124 41 -234 79 -245 84 -48 20
-470 143 -556 161 -84 18 -339 36 -350 25z"/>
</g>
</svg>
